<svg width="21" height="21" viewBox="0 0 21 21" fill="none" xmlns="http://www.w3.org/2000/svg">
<path d="M2.05435 9.44565C1.33398 9.44565 0.75 10.0297 0.75 10.75C0.75 11.4703 1.33398 12.0543 2.05435 12.0543V9.44565ZM10.75 12.0543C11.4703 12.0543 12.0543 11.4703 12.0543 10.75C12.0543 10.0297 11.4703 9.44565 10.75 9.44565V12.0543ZM10.75 9.44565C10.0297 9.44565 9.44565 10.0297 9.44565 10.75C9.44565 11.4703 10.0297 12.0543 10.75 12.0543V9.44565ZM19.4457 12.0543C20.166 12.0543 20.75 11.4703 20.75 10.75C20.75 10.0297 20.166 9.44565 19.4457 9.44565V12.0543ZM12.0543 10.75C12.0543 10.0297 11.4703 9.44565 10.75 9.44565C10.0297 9.44565 9.44565 10.0297 9.44565 10.75H12.0543ZM9.44565 19.4457C9.44565 20.166 10.0297 20.75 10.75 20.75C11.4703 20.75 12.0543 20.166 12.0543 19.4457H9.44565ZM9.44565 10.75C9.44565 11.4703 10.0297 12.0543 10.75 12.0543C11.4703 12.0543 12.0543 11.4703 12.0543 10.75H9.44565ZM12.0543 2.05435C12.0543 1.33398 11.4703 0.75 10.75 0.75C10.0297 0.75 9.44565 1.33398 9.44565 2.05435H12.0543ZM2.05435 12.0543H10.75V9.44565H2.05435V12.0543ZM10.75 12.0543H19.4457V9.44565H10.75V12.0543ZM10.75 10.75H9.44565V10.7517C9.44565 10.7519 9.44565 10.7538 9.44565 10.7538C9.44565 10.7537 9.44565 10.754 9.44565 10.7538C9.44565 10.7538 9.44565 10.7557 9.44565 10.7559C9.44565 10.7557 9.44565 10.7561 9.44565 10.7559C9.44565 10.7561 9.44565 10.7575 9.44565 10.7577C9.44565 10.7578 9.44565 10.7594 9.44565 10.7596C9.44565 10.7597 9.44565 10.7611 9.44565 10.7613C9.44565 10.7615 9.44565 10.763 9.44565 10.7634C9.44565 10.7636 9.44565 10.7651 9.44565 10.7655C9.44565 10.7657 9.44565 10.7676 9.44565 10.7677C9.44565 10.7674 9.44565 10.7681 9.44565 10.7677C9.44565 10.7681 9.44565 10.7691 9.44565 10.7695C9.44565 10.7691 9.44565 10.7698 9.44565 10.7695C9.44565 10.7698 9.44565 10.771 9.44565 10.7712C9.44565 10.7709 9.44565 10.7716 9.44565 10.7712C9.44565 10.7716 9.44565 10.7728 9.44565 10.7731C9.44565 10.7728 9.44565 10.7735 9.44565 10.7731C9.44565 10.7735 9.44565 10.7749 9.44565 10.7752C9.44565 10.7749 9.44565 10.7756 9.44565 10.7752C9.44565 10.7756 9.44565 10.777 9.44565 10.7773C9.44565 10.7768 9.44565 10.7777 9.44565 10.7773C9.44565 10.7777 9.44565 10.7792 9.44565 10.7796C9.44565 10.7792 9.44565 10.7799 9.44565 10.7796C9.44565 10.7799 9.44565 10.7815 9.44565 10.782C9.44565 10.7815 9.44565 10.7823 9.44565 10.782C9.44565 10.7823 9.44565 10.7841 9.44565 10.7844C9.44565 10.7841 9.44565 10.7848 9.44565 10.7844C9.44565 10.785 9.44565 10.7865 9.44565 10.787C9.44565 10.7865 9.44565 10.7876 9.44565 10.787C9.44565 10.7874 9.44565 10.7893 9.44565 10.7898C9.44565 10.7893 9.44565 10.7902 9.44565 10.7898C9.44565 10.7903 9.44565 10.7921 9.44565 10.7926C9.44565 10.7921 9.44565 10.7931 9.44565 10.7926C9.44565 10.7931 9.44565 10.7952 9.44565 10.7957C9.44565 10.7952 9.44565 10.7963 9.44565 10.7957C9.44565 10.7963 9.44565 10.7983 9.44565 10.7989C9.44565 10.7983 9.44565 10.7994 9.44565 10.7989C9.44565 10.7994 9.44565 10.8015 9.44565 10.8022C9.44565 10.8017 9.44565 10.8027 9.44565 10.8022C9.44565 10.8029 9.44565 10.805 9.44565 10.8055C9.44565 10.8062 9.44565 10.8067 9.44565 10.8074C9.44565 10.8079 9.44565 10.8084 9.44565 10.8091C9.44565 10.8098 9.44565 10.8103 9.44565 10.811C9.44565 10.8116 9.44565 10.8123 9.44565 10.8128C9.44565 10.8135 9.44565 10.8142 9.44565 10.8149C9.44565 10.8154 9.44565 10.8161 9.44565 10.8168C9.44565 10.8175 9.44565 10.818 9.44565 10.8187C9.44565 10.8194 9.44565 10.8201 9.44565 10.8208C9.44565 10.8215 9.44565 10.8222 9.44565 10.8229C9.44565 10.8236 9.44565 10.8243 9.44565 10.825C9.44565 10.8257 9.44565 10.8265 9.44565 10.8272C9.44565 10.8279 9.44565 10.8286 9.44565 10.8293C9.44565 10.8302 9.44565 10.8309 9.44565 10.8316C9.44565 10.8324 9.44565 10.8331 9.44565 10.8338C9.44565 10.8347 9.44565 10.8354 9.44565 10.8363C9.44565 10.837 9.44565 10.8378 9.44565 10.8385C9.44565 10.8394 9.44565 10.8403 9.44565 10.841C9.44565 10.8418 9.44565 10.8427 9.44565 10.8436C9.44565 10.8443 9.44565 10.8451 9.44565 10.846C9.44565 10.8469 9.44565 10.8477 9.44565 10.8486C9.44565 10.8493 9.44565 10.8502 9.44565 10.851C9.44565 10.8519 9.44565 10.853 9.44565 10.8538C9.44565 10.8547 9.44565 10.8556 9.44565 10.8564C9.44565 10.8573 9.44565 10.8582 9.44565 10.8592C9.44565 10.8601 9.44565 10.861 9.44565 10.862C9.44565 10.8629 9.44565 10.8639 9.44565 10.8648C9.44565 10.8657 9.44565 10.8667 9.44565 10.8676C9.44565 10.8686 9.44565 10.8697 9.44565 10.8705C9.44565 10.8716 9.44565 10.8726 9.44565 10.8735C9.44565 10.8745 9.44565 10.8756 9.44565 10.8766C9.44565 10.8775 9.44565 10.8785 9.44565 10.8796C9.44565 10.8806 9.44565 10.8817 9.44565 10.8827C9.44565 10.8837 9.44565 10.8848 9.44565 10.8858C9.44565 10.8869 9.44565 10.8881 9.44565 10.8891C9.44565 10.8902 9.44565 10.8912 9.44565 10.8923C9.44565 10.8935 9.44565 10.8945 9.44565 10.8956C9.44565 10.8968 9.44565 10.8978 9.44565 10.899C9.44565 10.9001 9.44565 10.9013 9.44565 10.9023C9.44565 10.9036 9.44565 10.9048 9.44565 10.9058C9.44565 10.907 9.44565 10.9083 9.44565 10.9095C9.44565 10.9105 9.44565 10.9117 9.44565 10.913C9.44565 10.9142 9.44565 10.9154 9.44565 10.9166C9.44565 10.9178 9.44565 10.919 9.44565 10.9203C9.44565 10.9215 9.44565 10.9227 9.44565 10.9239C9.44565 10.9253 9.44565 10.9265 9.44565 10.9277C9.44565 10.9291 9.44565 10.9303 9.44565 10.9316C9.44565 10.933 9.44565 10.9342 9.44565 10.9356C9.44565 10.9368 9.44565 10.9382 9.44565 10.9394C9.44565 10.9408 9.44565 10.9422 9.44565 10.9434C9.44565 10.9448 9.44565 10.9462 9.44565 10.9476C9.44565 10.949 9.44565 10.9502 9.44565 10.9516C9.44565 10.953 9.44565 10.9543 9.44565 10.9557C9.44565 10.9571 9.44565 10.9587 9.44565 10.9601C9.44565 10.9615 9.44565 10.9629 9.44565 10.9643C9.44565 10.9658 9.44565 10.9672 9.44565 10.9686C9.44565 10.9702 9.44565 10.9716 9.44565 10.9731C9.44565 10.9745 9.44565 10.9761 9.44565 10.9775C9.44565 10.979 9.44565 10.9806 9.44565 10.982C9.44565 10.9836 9.44565 10.9851 9.44565 10.9867C9.44565 10.9881 9.44565 10.9897 9.44565 10.9912C9.44565 10.9928 9.44565 10.9943 9.44565 10.9959C9.44565 10.9975 9.44565 10.999 9.44565 11.0008C9.44565 11.0023 9.44565 11.0039 9.44565 11.0055C9.44565 11.0072 9.44565 11.0088 9.44565 11.0103C9.44565 11.0121 9.44565 11.0137 9.44565 11.0154C9.44565 11.017 9.44565 11.0187 9.44565 11.0204C9.44565 11.022 9.44565 11.0237 9.44565 11.0255C9.44565 11.0272 9.44565 11.0288 9.44565 11.0305C9.44565 11.0323 9.44565 11.034 9.44565 11.0357C9.44565 11.0375 9.44565 11.0392 9.44565 11.041C9.44565 11.0429 9.44565 11.0446 9.44565 11.0463C9.44565 11.0481 9.44565 11.05 9.44565 11.0517C9.44565 11.0535 9.44565 11.0554 9.44565 11.0571C9.44565 11.059 9.44565 11.0608 9.44565 11.0627C9.44565 11.0646 9.44565 11.0663 9.44565 11.0683C9.44565 11.0702 9.44565 11.0721 9.44565 11.074C9.44565 11.0759 9.44565 11.0778 9.44565 11.0797C9.44565 11.0817 9.44565 11.0836 9.44565 11.0855C9.44565 11.0874 9.44565 11.0893 9.44565 11.0912C9.44565 11.0933 9.44565 11.0952 9.44565 11.0973C9.44565 11.0992 9.44565 11.1011 9.44565 11.1032C9.44565 11.1051 9.44565 11.1072 9.44565 11.1093C9.44565 11.1112 9.44565 11.1133 9.44565 11.1154C9.44565 11.1175 9.44565 11.1196 9.44565 11.1217C9.44565 11.1237 9.44565 11.1258 9.44565 11.1279C9.44565 11.13 9.44565 11.1321 9.44565 11.1342C9.44565 11.1363 9.44565 11.1383 9.44565 11.1406C9.44565 11.1427 9.44565 11.145 9.44565 11.147C9.44565 11.1493 9.44565 11.1514 9.44565 11.1537C9.44565 11.1557 9.44565 11.158 9.44565 11.1603C9.44565 11.1623 9.44565 11.1646 9.44565 11.1669C9.44565 11.1691 9.44565 11.1714 9.44565 11.1737C9.44565 11.1759 9.44565 11.1782 9.44565 11.1804C9.44565 11.1827 9.44565 11.1851 9.44565 11.1874C9.44565 11.1897 9.44565 11.1921 9.44565 11.1943C9.44565 11.1968 9.44565 11.199 9.44565 11.2015C9.44565 11.2037 9.44565 11.2062 9.44565 11.2086C9.44565 11.2109 9.44565 11.2133 9.44565 11.2157C9.44565 11.2182 9.44565 11.2206 9.44565 11.223C9.44565 11.2255 9.44565 11.2279 9.44565 11.2303C9.44565 11.2328 9.44565 11.2354 9.44565 11.2378C9.44565 11.2403 9.44565 11.2429 9.44565 11.2453C9.44565 11.2479 9.44565 11.2503 9.44565 11.253C9.44565 11.2554 9.44565 11.258 9.44565 11.2606C9.44565 11.2632 9.44565 11.2657 9.44565 11.2683C9.44565 11.2709 9.44565 11.2735 9.44565 11.2761C9.44565 11.2787 9.44565 11.2813 9.44565 11.2841C9.44565 11.2867 9.44565 11.2893 9.44565 11.2919C9.44565 11.2947 9.44565 11.2973 9.44565 11.3001C9.44565 11.3027 9.44565 11.3055 9.44565 11.3081C9.44565 11.3109 9.44565 11.3137 9.44565 11.3164C9.44565 11.319 9.44565 11.3218 9.44565 11.3246C9.44565 11.3274 9.44565 11.3302 9.44565 11.333C9.44565 11.3357 9.44565 11.3387 9.44565 11.3415C9.44565 11.3443 9.44565 11.3472 9.44565 11.35C9.44565 11.3528 9.44565 11.3557 9.44565 11.3587C9.44565 11.3615 9.44565 11.3644 9.44565 11.3674C9.44565 11.3702 9.44565 11.3731 9.44565 11.3761C9.44565 11.379 9.44565 11.382 9.44565 11.385C9.44565 11.3879 9.44565 11.3909 9.44565 11.3938C9.44565 11.397 9.44565 11.3999 9.44565 11.4029C9.44565 11.406 9.44565 11.409 9.44565 11.4121C9.44565 11.415 9.44565 11.4182 9.44565 11.4211C9.44565 11.4243 9.44565 11.4274 9.44565 11.4305C9.44565 11.4337 9.44565 11.4368 9.44565 11.4399C9.44565 11.443 9.44565 11.4462 9.44565 11.4493C9.44565 11.4524 9.44565 11.4556 9.44565 11.4589C9.44565 11.462 9.44565 11.4653 9.44565 11.4684C9.44565 11.4717 9.44565 11.4749 9.44565 11.4782C9.44565 11.4815 9.44565 11.4846 9.44565 11.4879C9.44565 11.4912 9.44565 11.4945 9.44565 11.4978C9.44565 11.5011 9.44565 11.5044 9.44565 11.5079C9.44565 11.5112 9.44565 11.5145 9.44565 11.5178C9.44565 11.5213 9.44565 11.5246 9.44565 11.5281C9.44565 11.5314 9.44565 11.5349 9.44565 11.5383C9.44565 11.5417 9.44565 11.5451 9.44565 11.5486C9.44565 11.5521 9.44565 11.5556 9.44565 11.559C9.44565 11.5625 9.44565 11.566 9.44565 11.5695C9.44565 11.573 9.44565 11.5766 9.44565 11.5801C9.44565 11.5837 9.44565 11.5872 9.44565 11.5909C9.44565 11.5943 9.44565 11.598 9.44565 11.6017C9.44565 11.6051 9.44565 11.6088 9.44565 11.6124C9.44565 11.6161 9.44565 11.6197 9.44565 11.6234C9.44565 11.627 9.44565 11.6307 9.44565 11.6345C9.44565 11.6382 9.44565 11.6418 9.44565 11.6457C9.44565 11.6493 9.44565 11.6531 9.44565 11.6568C9.44565 11.6606 9.44565 11.6644 9.44565 11.6683C9.44565 11.6719 9.44565 11.6757 9.44565 11.6796C9.44565 11.6834 9.44565 11.6872 9.44565 11.6912C9.44565 11.695 9.44565 11.6989 9.44565 11.7027C9.44565 11.7067 9.44565 11.7105 9.44565 11.7145C9.44565 11.7183 9.44565 11.7223 9.44565 11.7263C9.44565 11.7302 9.44565 11.7342 9.44565 11.7382C9.44565 11.7422 9.44565 11.7462 9.44565 11.7502C9.44565 11.7542 9.44565 11.7582 9.44565 11.7623C9.44565 11.7663 9.44565 11.7703 9.44565 11.7745C9.44565 11.7785 9.44565 11.7827 9.44565 11.7869C9.44565 11.7909 9.44565 11.795 9.44565 11.7992C9.44565 11.8034 9.44565 11.8076 9.44565 11.8117C9.44565 11.8159 9.44565 11.8201 9.44565 11.8243C9.44565 11.8284 9.44565 11.8328 9.44565 11.837C9.44565 11.8411 9.44565 11.8455 9.44565 11.8498C9.44565 11.854 9.44565 11.8583 9.44565 11.8627C9.44565 11.8669 9.44565 11.8712 9.44565 11.8756C9.44565 11.8799 9.44565 11.8843 9.44565 11.8888C9.44565 11.8931 9.44565 11.8975 9.44565 11.9018C9.44565 11.9063 9.44565 11.9107 9.44565 11.9152C9.44565 11.9196 9.44565 11.9241 9.44565 11.9286C9.44565 11.9331 9.44565 11.9375 9.44565 11.942C9.44565 11.9465 9.44565 11.951 9.44565 11.9557C9.44565 11.9603 9.44565 11.9648 9.44565 11.9693C9.44565 11.974 9.44565 11.9785 9.44565 11.9832C9.44565 11.9877 9.44565 11.9924 9.44565 11.9971C9.44565 12.0018 9.44565 12.0063 9.44565 12.011C9.44565 12.0157 9.44565 12.0204 9.44565 12.0251C9.44565 12.03 9.44565 12.0347 9.44565 12.0394C9.44565 12.0443 9.44565 12.049 9.44565 12.0538C9.44565 12.0585 9.44565 12.0634 9.44565 12.0683C9.44565 12.073 9.44565 12.0778 9.44565 12.0827C9.44565 12.0876 9.44565 12.0924 9.44565 12.0973C9.44565 12.1023 9.44565 12.1072 9.44565 12.1121C9.44565 12.1171 9.44565 12.122 9.44565 12.127C9.44565 12.1319 9.44565 12.137 9.44565 12.142C9.44565 12.147 9.44565 12.1519 9.44565 12.157C9.44565 12.162 9.44565 12.1672 9.44565 12.1723C9.44565 12.1773 9.44565 12.1823 9.44565 12.1876C9.44565 12.1926 9.44565 12.1978 9.44565 12.2029C9.44565 12.2081 9.44565 12.2133 9.44565 12.2183C9.44565 12.2236 9.44565 12.2288 9.44565 12.234C9.44565 12.2392 9.44565 12.2444 9.44565 12.2498C9.44565 12.255 9.44565 12.2603 9.44565 12.2657C9.44565 12.2709 9.44565 12.2763 9.44565 12.2817C9.44565 12.2869 9.44565 12.2923 9.44565 12.2977C9.44565 12.303 9.44565 12.3084 9.44565 12.3138C9.44565 12.3192 9.44565 12.3246 9.44565 12.3302C9.44565 12.3356 9.44565 12.341 9.44565 12.3465C9.44565 12.3519 9.44565 12.3575 9.44565 12.363C9.44565 12.3686 9.44565 12.3742 9.44565 12.3797C9.44565 12.3851 9.44565 12.3909 9.44565 12.3964C9.44565 12.402 9.44565 12.4076 9.44565 12.4133C9.44565 12.4189 9.44565 12.4246 9.44565 12.4302C9.44565 12.4359 9.44565 12.4417 9.44565 12.4474C9.44565 12.453 9.44565 12.4587 9.44565 12.4644C9.44565 12.4703 9.44565 12.4761 9.44565 12.4818C9.44565 12.4876 9.44565 12.4935 9.44565 12.4992C9.44565 12.5051 9.44565 12.5109 9.44565 12.5168C9.44565 12.5227 9.44565 12.5286 9.44565 12.5345C9.44565 12.5404 9.44565 12.5463 9.44565 12.5523C9.44565 12.5582 9.44565 12.5643 9.44565 12.5702C9.44565 12.5761 9.44565 12.5822 9.44565 12.5883C9.44565 12.5942 9.44565 12.6003 9.44565 12.6063C9.44565 12.6124 9.44565 12.6185 9.44565 12.6246C9.44565 12.6307 9.44565 12.6368 9.44565 12.643C9.44565 12.6491 9.44565 12.6552 9.44565 12.6615C9.44565 12.6677 9.44565 12.6738 9.44565 12.6801C9.44565 12.6863 9.44565 12.6926 9.44565 12.6989C9.44565 12.7051 9.44565 12.7114 9.44565 12.7177C9.44565 12.7239 9.44565 12.7303 9.44565 12.7366C9.44565 12.743 9.44565 12.7493 9.44565 12.7557C9.44565 12.7622 9.44565 12.7686 9.44565 12.775C9.44565 12.7815 9.44565 12.7879 9.44565 12.7943C9.44565 12.8008 9.44565 12.8072 9.44565 12.8138C9.44565 12.8203 9.44565 12.8269 9.44565 12.8335C9.44565 12.8399 9.44565 12.8465 9.44565 12.8531C9.44565 12.8597 9.44565 12.8663 9.44565 12.873C9.44565 12.8796 9.44565 12.8862 9.44565 12.893C9.44565 12.8996 9.44565 12.9063 9.44565 12.913C9.44565 12.9197 9.44565 12.9265 9.44565 12.9333C9.44565 12.9399 9.44565 12.9467 9.44565 12.9537C9.44565 12.9604 9.44565 12.9672 9.44565 12.974C9.44565 12.981 9.44565 12.9877 9.44565 12.9947C9.44565 13.0015 9.44565 13.0084 9.44565 13.0154C9.44565 13.0223 9.44565 13.0293 9.44565 13.0363C9.44565 13.0432 9.44565 13.0502 9.44565 13.0571C9.44565 13.0643 9.44565 13.0712 9.44565 13.0783C9.44565 13.0853 9.44565 13.0924 9.44565 13.0996C9.44565 13.1065 9.44565 13.1137 9.44565 13.1208C9.44565 13.1281 9.44565 13.1352 9.44565 13.1423C9.44565 13.1495 9.44565 13.1568 9.44565 13.1639C9.44565 13.1712 9.44565 13.1785 9.44565 13.1857C9.44565 13.193 9.44565 13.2003 9.44565 13.2076C9.44565 13.2149 9.44565 13.2222 9.44565 13.2297C9.44565 13.237 9.44565 13.2443 9.44565 13.2517C9.44565 13.2592 9.44565 13.2665 9.44565 13.274C9.44565 13.2815 9.44565 13.289 9.44565 13.2964C9.44565 13.3039 9.44565 13.3114 9.44565 13.3189C9.44565 13.3265 9.44565 13.334 9.44565 13.3417C9.44565 13.3491 9.44565 13.3568 9.44565 13.3644C9.44565 13.3721 9.44565 13.3797 9.44565 13.3874C9.44565 13.395 9.44565 13.4027 9.44565 13.4103C9.44565 13.4182 9.44565 13.4258 9.44565 13.4337C9.44565 13.4413 9.44565 13.4491 9.44565 13.457C9.44565 13.4648 9.44565 13.4726 9.44565 13.4804C9.44565 13.4883 9.44565 13.4961 9.44565 13.5041C9.44565 13.5119 9.44565 13.5199 9.44565 13.5277C9.44565 13.5357 9.44565 13.5437 9.44565 13.5516C9.44565 13.5596 9.44565 13.5676 9.44565 13.5757C9.44565 13.5837 9.44565 13.5917 9.44565 13.5997C9.44565 13.6079 9.44565 13.6159 9.44565 13.6241C9.44565 13.6323 9.44565 13.6404 9.44565 13.6486C9.44565 13.6566 9.44565 13.665 9.44565 13.6731C9.44565 13.6813 9.44565 13.6895 9.44565 13.6978C9.44565 13.706 9.44565 13.7143 9.44565 13.7227C9.44565 13.7309 9.44565 13.7392 9.44565 13.7476C9.44565 13.7559 9.44565 13.7643 9.44565 13.7728C9.44565 13.7811 9.44565 13.7895 9.44565 13.798C9.44565 13.8065 9.44565 13.8149 9.44565 13.8234C9.44565 13.8319 9.44565 13.8404 9.44565 13.849C9.44565 13.8575 9.44565 13.866 9.44565 13.8747C9.44565 13.8832 9.44565 13.8917 9.44565 13.9004C9.44565 13.9091 9.44565 13.9177 9.44565 13.9263C9.44565 13.935 9.44565 13.9437 9.44565 13.9524C9.44565 13.9613 9.44565 13.97 9.44565 13.9787C9.44565 13.9876 9.44565 13.9963 9.44565 14.0051C9.44565 14.014 9.44565 14.0229 9.44565 14.0317C9.44565 14.0406 9.44565 14.0495 9.44565 14.0583C9.44565 14.0672 9.44565 14.0763 9.44565 14.0851C9.44565 14.0942 9.44565 14.1032 9.44565 14.1121C9.44565 14.1211 9.44565 14.1302 9.44565 14.1392C9.44565 14.1483 9.44565 14.1575 9.44565 14.1665C9.44565 14.1756 9.44565 14.1848 9.44565 14.194C9.44565 14.203 9.44565 14.2123 9.44565 14.2215C9.44565 14.2307 9.44565 14.2399 9.44565 14.2491C9.44565 14.2585 9.44565 14.2677 9.44565 14.277C9.44565 14.2863 9.44565 14.2957 9.44565 14.305C9.44565 14.3143 9.44565 14.3237 9.44565 14.3331C9.44565 14.3425 9.44565 14.3521 9.44565 14.3615C9.44565 14.3709 9.44565 14.3804 9.44565 14.3898C9.44565 14.3994 9.44565 14.409 9.44565 14.4185C9.44565 14.4281 9.44565 14.4377 9.44565 14.4472C9.44565 14.4568 9.44565 14.4665 9.44565 14.4761C9.44565 14.4858 9.44565 14.4954 9.44565 14.5051C9.44565 14.5149 9.44565 14.5246 9.44565 14.5343C9.44565 14.5441 9.44565 14.5538 9.44565 14.5637C9.44565 14.5735 9.44565 14.5832 9.44565 14.5931C9.44565 14.603 9.44565 14.613 9.44565 14.6227C9.44565 14.6326 9.44565 14.6427 9.44565 14.6526C9.44565 14.6625 9.44565 14.6724 9.44565 14.6825C9.44565 14.6924 9.44565 14.7025 9.44565 14.7126C9.44565 14.7227 9.44565 14.7328 9.44565 14.7429C9.44565 14.753 9.44565 14.763 9.44565 14.7733C9.44565 14.7834 9.44565 14.7937 9.44565 14.8037C9.44565 14.814 9.44565 14.8243 9.44565 14.8345C9.44565 14.8448 9.44565 14.855 9.44565 14.8653C9.44565 14.8757 9.44565 14.886 9.44565 14.8964C9.44565 14.9067 9.44565 14.9171 9.44565 14.9276C9.44565 14.938 9.44565 14.9484 9.44565 14.9589C9.44565 14.9693 9.44565 14.9799 9.44565 14.9903C9.44565 15.001 9.44565 15.0114 9.44565 15.022C9.44565 15.0326 9.44565 15.0432 9.44565 15.0538C9.44565 15.0644 9.44565 15.0752 9.44565 15.0858C9.44565 15.0964 9.44565 15.1072 9.44565 15.118C9.44565 15.1286 9.44565 15.1394 9.44565 15.1502C9.44565 15.161 9.44565 15.1717 9.44565 15.1827C9.44565 15.1935 9.44565 15.2043 9.44565 15.2152C9.44565 15.2262 9.44565 15.237 9.44565 15.2479C9.44565 15.2589 9.44565 15.2698 9.44565 15.281C9.44565 15.2919 9.44565 15.3029 9.44565 15.314C9.44565 15.325 9.44565 15.3361 9.44565 15.3472C9.44565 15.3583 9.44565 15.3695 9.44565 15.3806C9.44565 15.3917 9.44565 15.4029 9.44565 15.4142C9.44565 15.4253 9.44565 15.4366 9.44565 15.4479C9.44565 15.459 9.44565 15.4703 9.44565 15.4818C9.44565 15.4931 9.44565 15.5044 9.44565 15.5157C9.44565 15.5272 9.44565 15.5385 9.44565 15.55C9.44565 15.5615 9.44565 15.573 9.44565 15.5844C9.44565 15.5959 9.44565 15.6074 9.44565 15.6189C9.44565 15.6303 9.44565 15.642 9.44565 15.6537C9.44565 15.6651 9.44565 15.6768 9.44565 15.6884C9.44565 15.7001 9.44565 15.7117 9.44565 15.7234C9.44565 15.7352 9.44565 15.7469 9.44565 15.7587C9.44565 15.7703 9.44565 15.7822 9.44565 15.794C9.44565 15.8058 9.44565 15.8177 9.44565 15.8295C9.44565 15.8415 9.44565 15.8533 9.44565 15.8653C9.44565 15.8771 9.44565 15.8891 9.44565 15.9011C9.44565 15.9131 9.44565 15.9251 9.44565 15.9371C9.44565 15.9491 9.44565 15.9611 9.44565 15.9733C9.44565 15.9853 9.44565 15.9975 9.44565 16.0097C9.44565 16.0218 9.44565 16.034 9.44565 16.0462C9.44565 16.0583 9.44565 16.0705 9.44565 16.0829C9.44565 16.095 9.44565 16.1074 9.44565 16.1197C9.44565 16.1321 9.44565 16.1444 9.44565 16.1568C9.44565 16.1691 9.44565 16.1815 9.44565 16.194C9.44565 16.2063 9.44565 16.2189 9.44565 16.2314C9.44565 16.2437 9.44565 16.2563 9.44565 16.269C9.44565 16.2815 9.44565 16.294 9.44565 16.3065C9.44565 16.3192 9.44565 16.3317 9.44565 16.3444C9.44565 16.3571 9.44565 16.3698 9.44565 16.3825C9.44565 16.3952 9.44565 16.4079 9.44565 16.4208C9.44565 16.4335 9.44565 16.4463 9.44565 16.4592C9.44565 16.4719 9.44565 16.4848 9.44565 16.4977C9.44565 16.5107 9.44565 16.5236 9.44565 16.5364C9.44565 16.5495 9.44565 16.5623 9.44565 16.5754C9.44565 16.5884 9.44565 16.6015 9.44565 16.6145C9.44565 16.6276 9.44565 16.6406 9.44565 16.6538C9.44565 16.6669 9.44565 16.6801 9.44565 16.6933C9.44565 16.7063 9.44565 16.7196 9.44565 16.7328C9.44565 16.746 9.44565 16.7594 9.44565 16.7726C9.44565 16.786 9.44565 16.7992 9.44565 16.8126C9.44565 16.826 9.44565 16.8394 9.44565 16.8528C9.44565 16.8662 9.44565 16.8796 9.44565 16.8931C9.44565 16.9065 9.44565 16.9201 9.44565 16.9337C9.44565 16.947 9.44565 16.9606 9.44565 16.9743C9.44565 16.9879 9.44565 17.0015 9.44565 17.0152C9.44565 17.0288 9.44565 17.0425 9.44565 17.0561C9.44565 17.0698 9.44565 17.0836 9.44565 17.0973C9.44565 17.1112 9.44565 17.125 9.44565 17.1389C9.44565 17.1526 9.44565 17.1665 9.44565 17.1804C9.44565 17.1942 9.44565 17.2081 9.44565 17.2222C9.44565 17.2361 9.44565 17.25 9.44565 17.2641C9.44565 17.278 9.44565 17.2921 9.44565 17.3062C9.44565 17.3203 9.44565 17.3343 9.44565 17.3484C9.44565 17.3625 9.44565 17.3768 9.44565 17.3909C9.44565 17.4051 9.44565 17.4194 9.44565 17.4337C9.44565 17.4479 9.44565 17.4622 9.44565 17.4764C9.44565 17.4907 9.44565 17.5051 9.44565 17.5194C9.44565 17.5338 9.44565 17.5483 9.44565 17.5627C9.44565 17.5771 9.44565 17.5916 9.44565 17.606C9.44565 17.6206 9.44565 17.635 9.44565 17.6497C9.44565 17.6643 9.44565 17.6789 9.44565 17.6935C9.44565 17.7081 9.44565 17.7227 9.44565 17.7373C9.44565 17.7521 9.44565 17.7667 9.44565 17.7815C9.44565 17.7963 9.44565 17.811 9.44565 17.8258C9.44565 17.8406 9.44565 17.8554 9.44565 17.8703C9.44565 17.8851 9.44565 17.9001 9.44565 17.915C9.44565 17.93 9.44565 17.945 9.44565 17.9599C9.44565 17.9749 9.44565 17.9898 9.44565 18.005C9.44565 18.0199 9.44565 18.035 9.44565 18.0502C9.44565 18.0653 9.44565 18.0804 9.44565 18.0956C9.44565 18.1109 9.44565 18.126 9.44565 18.1413C9.44565 18.1564 9.44565 18.1717 9.44565 18.187C9.44565 18.2023 9.44565 18.2177 9.44565 18.2331C9.44565 18.2484 9.44565 18.2637 9.44565 18.2792C9.44565 18.2947 9.44565 18.3102 9.44565 18.3257C9.44565 18.3411 9.44565 18.3566 9.44565 18.3723C9.44565 18.3877 9.44565 18.4034 9.44565 18.419C9.44565 18.4345 9.44565 18.4502 9.44565 18.466C9.44565 18.4817 9.44565 18.4973 9.44565 18.5131C9.44565 18.5288 9.44565 18.5446 9.44565 18.5604C9.44565 18.5763 9.44565 18.5921 9.44565 18.6079C9.44565 18.6237 9.44565 18.6397 9.44565 18.6556C9.44565 18.6716 9.44565 18.6876 9.44565 18.7036C9.44565 18.7196 9.44565 18.7356 9.44565 18.7517C9.44565 18.7677 9.44565 18.7839 9.44565 18.7999C9.44565 18.8161 9.44565 18.8323 9.44565 18.8484C9.44565 18.8646 9.44565 18.881 9.44565 18.8971C9.44565 18.9135 9.44565 18.9297 9.44565 18.946C9.44565 18.9623 9.44565 18.9787 9.44565 18.995C9.44565 19.0116 9.44565 19.0279 9.44565 19.0444C9.44565 19.0608 9.44565 19.0773 9.44565 19.0938C9.44565 19.1103 9.44565 19.1269 9.44565 19.1436C9.44565 19.1601 9.44565 19.1768 9.44565 19.1933C9.44565 19.21 9.44565 19.2267 9.44565 19.2434C9.44565 19.2601 9.44565 19.277 9.44565 19.2937C9.44565 19.3105 9.44565 19.3272 9.44565 19.3441C9.44565 19.361 9.44565 19.3778 9.44565 19.3949C9.44565 19.4117 9.44565 19.4286 9.44565 19.4457H12.0543C12.0543 19.4286 12.0543 19.4117 12.0543 19.3949C12.0543 19.3778 12.0543 19.361 12.0543 19.3441C12.0543 19.3272 12.0543 19.3105 12.0543 19.2937C12.0543 19.277 12.0543 19.2601 12.0543 19.2434C12.0543 19.2267 12.0543 19.21 12.0543 19.1933C12.0543 19.1768 12.0543 19.1601 12.0543 19.1436C12.0543 19.1269 12.0543 19.1103 12.0543 19.0938C12.0543 19.0773 12.0543 19.0608 12.0543 19.0444C12.0543 19.0279 12.0543 19.0116 12.0543 18.995C12.0543 18.9787 12.0543 18.9623 12.0543 18.946C12.0543 18.9297 12.0543 18.9135 12.0543 18.8971C12.0543 18.881 12.0543 18.8646 12.0543 18.8484C12.0543 18.8323 12.0543 18.8161 12.0543 18.7999C12.0543 18.7839 12.0543 18.7677 12.0543 18.7517C12.0543 18.7356 12.0543 18.7196 12.0543 18.7036C12.0543 18.6876 12.0543 18.6716 12.0543 18.6556C12.0543 18.6397 12.0543 18.6237 12.0543 18.6079C12.0543 18.5921 12.0543 18.5763 12.0543 18.5604C12.0543 18.5446 12.0543 18.5288 12.0543 18.5131C12.0543 18.4973 12.0543 18.4817 12.0543 18.466C12.0543 18.4502 12.0543 18.4345 12.0543 18.419C12.0543 18.4034 12.0543 18.3877 12.0543 18.3723C12.0543 18.3566 12.0543 18.3411 12.0543 18.3257C12.0543 18.3102 12.0543 18.2947 12.0543 18.2792C12.0543 18.2637 12.0543 18.2484 12.0543 18.2331C12.0543 18.2177 12.0543 18.2023 12.0543 18.187C12.0543 18.1717 12.0543 18.1564 12.0543 18.1413C12.0543 18.126 12.0543 18.1109 12.0543 18.0956C12.0543 18.0804 12.0543 18.0653 12.0543 18.0502C12.0543 18.035 12.0543 18.0199 12.0543 18.005C12.0543 17.9898 12.0543 17.9749 12.0543 17.9599C12.0543 17.945 12.0543 17.93 12.0543 17.915C12.0543 17.9001 12.0543 17.8851 12.0543 17.8703C12.0543 17.8554 12.0543 17.8406 12.0543 17.8258C12.0543 17.811 12.0543 17.7963 12.0543 17.7815C12.0543 17.7667 12.0543 17.7521 12.0543 17.7373C12.0543 17.7227 12.0543 17.7081 12.0543 17.6935C12.0543 17.6789 12.0543 17.6643 12.0543 17.6497C12.0543 17.635 12.0543 17.6206 12.0543 17.606C12.0543 17.5916 12.0543 17.5771 12.0543 17.5627C12.0543 17.5483 12.0543 17.5338 12.0543 17.5194C12.0543 17.5051 12.0543 17.4907 12.0543 17.4764C12.0543 17.4622 12.0543 17.4479 12.0543 17.4337C12.0543 17.4194 12.0543 17.4051 12.0543 17.3909C12.0543 17.3768 12.0543 17.3625 12.0543 17.3484C12.0543 17.3343 12.0543 17.3203 12.0543 17.3062C12.0543 17.2921 12.0543 17.278 12.0543 17.2641C12.0543 17.25 12.0543 17.2361 12.0543 17.2222C12.0543 17.2081 12.0543 17.1942 12.0543 17.1804C12.0543 17.1665 12.0543 17.1526 12.0543 17.1389C12.0543 17.125 12.0543 17.1112 12.0543 17.0973C12.0543 17.0836 12.0543 17.0698 12.0543 17.0561C12.0543 17.0425 12.0543 17.0288 12.0543 17.0152C12.0543 17.0015 12.0543 16.9879 12.0543 16.9743C12.0543 16.9606 12.0543 16.947 12.0543 16.9337C12.0543 16.9201 12.0543 16.9065 12.0543 16.8931C12.0543 16.8796 12.0543 16.8662 12.0543 16.8528C12.0543 16.8394 12.0543 16.826 12.0543 16.8126C12.0543 16.7992 12.0543 16.786 12.0543 16.7726C12.0543 16.7594 12.0543 16.746 12.0543 16.7328C12.0543 16.7196 12.0543 16.7063 12.0543 16.6933C12.0543 16.6801 12.0543 16.6669 12.0543 16.6538C12.0543 16.6406 12.0543 16.6276 12.0543 16.6145C12.0543 16.6015 12.0543 16.5884 12.0543 16.5754C12.0543 16.5623 12.0543 16.5495 12.0543 16.5364C12.0543 16.5236 12.0543 16.5107 12.0543 16.4977C12.0543 16.4848 12.0543 16.4719 12.0543 16.4592C12.0543 16.4463 12.0543 16.4335 12.0543 16.4208C12.0543 16.4079 12.0543 16.3952 12.0543 16.3825C12.0543 16.3698 12.0543 16.3571 12.0543 16.3444C12.0543 16.3317 12.0543 16.3192 12.0543 16.3065C12.0543 16.294 12.0543 16.2815 12.0543 16.269C12.0543 16.2563 12.0543 16.2437 12.0543 16.2314C12.0543 16.2189 12.0543 16.2063 12.0543 16.194C12.0543 16.1815 12.0543 16.1691 12.0543 16.1568C12.0543 16.1444 12.0543 16.1321 12.0543 16.1197C12.0543 16.1074 12.0543 16.095 12.0543 16.0829C12.0543 16.0705 12.0543 16.0583 12.0543 16.0462C12.0543 16.034 12.0543 16.0218 12.0543 16.0097C12.0543 15.9975 12.0543 15.9853 12.0543 15.9733C12.0543 15.9611 12.0543 15.9491 12.0543 15.9371C12.0543 15.9251 12.0543 15.9131 12.0543 15.9011C12.0543 15.8891 12.0543 15.8771 12.0543 15.8653C12.0543 15.8533 12.0543 15.8415 12.0543 15.8295C12.0543 15.8177 12.0543 15.8058 12.0543 15.794C12.0543 15.7822 12.0543 15.7703 12.0543 15.7587C12.0543 15.7469 12.0543 15.7352 12.0543 15.7234C12.0543 15.7117 12.0543 15.7001 12.0543 15.6884C12.0543 15.6768 12.0543 15.6651 12.0543 15.6537C12.0543 15.642 12.0543 15.6303 12.0543 15.6189C12.0543 15.6074 12.0543 15.5959 12.0543 15.5844C12.0543 15.573 12.0543 15.5615 12.0543 15.55C12.0543 15.5385 12.0543 15.5272 12.0543 15.5157C12.0543 15.5044 12.0543 15.4931 12.0543 15.4818C12.0543 15.4703 12.0543 15.459 12.0543 15.4479C12.0543 15.4366 12.0543 15.4253 12.0543 15.4142C12.0543 15.4029 12.0543 15.3917 12.0543 15.3806C12.0543 15.3695 12.0543 15.3583 12.0543 15.3472C12.0543 15.3361 12.0543 15.325 12.0543 15.314C12.0543 15.3029 12.0543 15.2919 12.0543 15.281C12.0543 15.2698 12.0543 15.2589 12.0543 15.2479C12.0543 15.237 12.0543 15.2262 12.0543 15.2152C12.0543 15.2043 12.0543 15.1935 12.0543 15.1827C12.0543 15.1717 12.0543 15.161 12.0543 15.1502C12.0543 15.1394 12.0543 15.1286 12.0543 15.118C12.0543 15.1072 12.0543 15.0964 12.0543 15.0858C12.0543 15.0752 12.0543 15.0644 12.0543 15.0538C12.0543 15.0432 12.0543 15.0326 12.0543 15.022C12.0543 15.0114 12.0543 15.001 12.0543 14.9903C12.0543 14.9799 12.0543 14.9693 12.0543 14.9589C12.0543 14.9484 12.0543 14.938 12.0543 14.9276C12.0543 14.9171 12.0543 14.9067 12.0543 14.8964C12.0543 14.886 12.0543 14.8757 12.0543 14.8653C12.0543 14.855 12.0543 14.8448 12.0543 14.8345C12.0543 14.8243 12.0543 14.814 12.0543 14.8037C12.0543 14.7937 12.0543 14.7834 12.0543 14.7733C12.0543 14.763 12.0543 14.753 12.0543 14.7429C12.0543 14.7328 12.0543 14.7227 12.0543 14.7126C12.0543 14.7025 12.0543 14.6924 12.0543 14.6825C12.0543 14.6724 12.0543 14.6625 12.0543 14.6526C12.0543 14.6427 12.0543 14.6326 12.0543 14.6227C12.0543 14.613 12.0543 14.603 12.0543 14.5931C12.0543 14.5832 12.0543 14.5735 12.0543 14.5637C12.0543 14.5538 12.0543 14.5441 12.0543 14.5343C12.0543 14.5246 12.0543 14.5149 12.0543 14.5051C12.0543 14.4954 12.0543 14.4858 12.0543 14.4761C12.0543 14.4665 12.0543 14.4568 12.0543 14.4472C12.0543 14.4377 12.0543 14.4281 12.0543 14.4185C12.0543 14.409 12.0543 14.3994 12.0543 14.3898C12.0543 14.3804 12.0543 14.3709 12.0543 14.3615C12.0543 14.3521 12.0543 14.3425 12.0543 14.3331C12.0543 14.3237 12.0543 14.3143 12.0543 14.305C12.0543 14.2957 12.0543 14.2863 12.0543 14.277C12.0543 14.2677 12.0543 14.2585 12.0543 14.2491C12.0543 14.2399 12.0543 14.2307 12.0543 14.2215C12.0543 14.2123 12.0543 14.203 12.0543 14.194C12.0543 14.1848 12.0543 14.1756 12.0543 14.1665C12.0543 14.1575 12.0543 14.1483 12.0543 14.1392C12.0543 14.1302 12.0543 14.1211 12.0543 14.1121C12.0543 14.1032 12.0543 14.0942 12.0543 14.0851C12.0543 14.0763 12.0543 14.0672 12.0543 14.0583C12.0543 14.0495 12.0543 14.0406 12.0543 14.0317C12.0543 14.0229 12.0543 14.014 12.0543 14.0051C12.0543 13.9963 12.0543 13.9876 12.0543 13.9787C12.0543 13.97 12.0543 13.9613 12.0543 13.9524C12.0543 13.9437 12.0543 13.935 12.0543 13.9263C12.0543 13.9177 12.0543 13.9091 12.0543 13.9004C12.0543 13.8917 12.0543 13.8832 12.0543 13.8747C12.0543 13.866 12.0543 13.8575 12.0543 13.849C12.0543 13.8404 12.0543 13.8319 12.0543 13.8234C12.0543 13.8149 12.0543 13.8065 12.0543 13.798C12.0543 13.7895 12.0543 13.7811 12.0543 13.7728C12.0543 13.7643 12.0543 13.7559 12.0543 13.7476C12.0543 13.7392 12.0543 13.7309 12.0543 13.7227C12.0543 13.7143 12.0543 13.706 12.0543 13.6978C12.0543 13.6895 12.0543 13.6813 12.0543 13.6731C12.0543 13.665 12.0543 13.6566 12.0543 13.6486C12.0543 13.6404 12.0543 13.6323 12.0543 13.6241C12.0543 13.6159 12.0543 13.6079 12.0543 13.5997C12.0543 13.5917 12.0543 13.5837 12.0543 13.5757C12.0543 13.5676 12.0543 13.5596 12.0543 13.5516C12.0543 13.5437 12.0543 13.5357 12.0543 13.5277C12.0543 13.5199 12.0543 13.5119 12.0543 13.5041C12.0543 13.4961 12.0543 13.4883 12.0543 13.4804C12.0543 13.4726 12.0543 13.4648 12.0543 13.457C12.0543 13.4491 12.0543 13.4413 12.0543 13.4337C12.0543 13.4258 12.0543 13.4182 12.0543 13.4103C12.0543 13.4027 12.0543 13.395 12.0543 13.3874C12.0543 13.3797 12.0543 13.3721 12.0543 13.3644C12.0543 13.3568 12.0543 13.3491 12.0543 13.3417C12.0543 13.334 12.0543 13.3265 12.0543 13.3189C12.0543 13.3114 12.0543 13.3039 12.0543 13.2964C12.0543 13.289 12.0543 13.2815 12.0543 13.274C12.0543 13.2665 12.0543 13.2592 12.0543 13.2517C12.0543 13.2443 12.0543 13.237 12.0543 13.2297C12.0543 13.2222 12.0543 13.2149 12.0543 13.2076C12.0543 13.2003 12.0543 13.193 12.0543 13.1857C12.0543 13.1785 12.0543 13.1712 12.0543 13.1639C12.0543 13.1568 12.0543 13.1495 12.0543 13.1423C12.0543 13.1352 12.0543 13.1281 12.0543 13.1208C12.0543 13.1137 12.0543 13.1065 12.0543 13.0996C12.0543 13.0924 12.0543 13.0853 12.0543 13.0783C12.0543 13.0712 12.0543 13.0643 12.0543 13.0571C12.0543 13.0502 12.0543 13.0432 12.0543 13.0363C12.0543 13.0293 12.0543 13.0223 12.0543 13.0154C12.0543 13.0084 12.0543 13.0015 12.0543 12.9947C12.0543 12.9877 12.0543 12.981 12.0543 12.974C12.0543 12.9672 12.0543 12.9604 12.0543 12.9537C12.0543 12.9467 12.0543 12.9399 12.0543 12.9333C12.0543 12.9265 12.0543 12.9197 12.0543 12.913C12.0543 12.9063 12.0543 12.8996 12.0543 12.893C12.0543 12.8862 12.0543 12.8796 12.0543 12.873C12.0543 12.8663 12.0543 12.8597 12.0543 12.8531C12.0543 12.8465 12.0543 12.8399 12.0543 12.8335C12.0543 12.8269 12.0543 12.8203 12.0543 12.8138C12.0543 12.8072 12.0543 12.8008 12.0543 12.7943C12.0543 12.7879 12.0543 12.7815 12.0543 12.775C12.0543 12.7686 12.0543 12.7622 12.0543 12.7557C12.0543 12.7493 12.0543 12.743 12.0543 12.7366C12.0543 12.7303 12.0543 12.7239 12.0543 12.7177C12.0543 12.7114 12.0543 12.7051 12.0543 12.6989C12.0543 12.6926 12.0543 12.6863 12.0543 12.6801C12.0543 12.6738 12.0543 12.6677 12.0543 12.6615C12.0543 12.6552 12.0543 12.6491 12.0543 12.643C12.0543 12.6368 12.0543 12.6307 12.0543 12.6246C12.0543 12.6185 12.0543 12.6124 12.0543 12.6063C12.0543 12.6003 12.0543 12.5942 12.0543 12.5883C12.0543 12.5822 12.0543 12.5761 12.0543 12.5702C12.0543 12.5643 12.0543 12.5582 12.0543 12.5523C12.0543 12.5463 12.0543 12.5404 12.0543 12.5345C12.0543 12.5286 12.0543 12.5227 12.0543 12.5168C12.0543 12.5109 12.0543 12.5051 12.0543 12.4992C12.0543 12.4935 12.0543 12.4876 12.0543 12.4818C12.0543 12.4761 12.0543 12.4703 12.0543 12.4644C12.0543 12.4587 12.0543 12.453 12.0543 12.4474C12.0543 12.4417 12.0543 12.4359 12.0543 12.4302C12.0543 12.4246 12.0543 12.4189 12.0543 12.4133C12.0543 12.4076 12.0543 12.402 12.0543 12.3964C12.0543 12.3909 12.0543 12.3851 12.0543 12.3797C12.0543 12.3742 12.0543 12.3686 12.0543 12.363C12.0543 12.3575 12.0543 12.3519 12.0543 12.3465C12.0543 12.341 12.0543 12.3356 12.0543 12.3302C12.0543 12.3246 12.0543 12.3192 12.0543 12.3138C12.0543 12.3084 12.0543 12.303 12.0543 12.2977C12.0543 12.2923 12.0543 12.2869 12.0543 12.2817C12.0543 12.2763 12.0543 12.2709 12.0543 12.2657C12.0543 12.2603 12.0543 12.255 12.0543 12.2498C12.0543 12.2444 12.0543 12.2392 12.0543 12.234C12.0543 12.2288 12.0543 12.2236 12.0543 12.2183C12.0543 12.2133 12.0543 12.2081 12.0543 12.2029C12.0543 12.1978 12.0543 12.1926 12.0543 12.1876C12.0543 12.1823 12.0543 12.1773 12.0543 12.1723C12.0543 12.1672 12.0543 12.162 12.0543 12.157C12.0543 12.1519 12.0543 12.147 12.0543 12.142C12.0543 12.137 12.0543 12.1319 12.0543 12.127C12.0543 12.122 12.0543 12.1171 12.0543 12.1121C12.0543 12.1072 12.0543 12.1023 12.0543 12.0973C12.0543 12.0924 12.0543 12.0876 12.0543 12.0827C12.0543 12.0778 12.0543 12.073 12.0543 12.0683C12.0543 12.0634 12.0543 12.0585 12.0543 12.0538C12.0543 12.049 12.0543 12.0443 12.0543 12.0394C12.0543 12.0347 12.0543 12.03 12.0543 12.0251C12.0543 12.0204 12.0543 12.0157 12.0543 12.011C12.0543 12.0063 12.0543 12.0018 12.0543 11.9971C12.0543 11.9924 12.0543 11.9877 12.0543 11.9832C12.0543 11.9785 12.0543 11.974 12.0543 11.9693C12.0543 11.9648 12.0543 11.9603 12.0543 11.9557C12.0543 11.951 12.0543 11.9465 12.0543 11.942C12.0543 11.9375 12.0543 11.9331 12.0543 11.9286C12.0543 11.9241 12.0543 11.9196 12.0543 11.9152C12.0543 11.9107 12.0543 11.9063 12.0543 11.9018C12.0543 11.8975 12.0543 11.8931 12.0543 11.8888C12.0543 11.8843 12.0543 11.8799 12.0543 11.8756C12.0543 11.8712 12.0543 11.8669 12.0543 11.8627C12.0543 11.8583 12.0543 11.854 12.0543 11.8498C12.0543 11.8455 12.0543 11.8411 12.0543 11.837C12.0543 11.8328 12.0543 11.8284 12.0543 11.8243C12.0543 11.8201 12.0543 11.8159 12.0543 11.8117C12.0543 11.8076 12.0543 11.8034 12.0543 11.7992C12.0543 11.795 12.0543 11.7909 12.0543 11.7869C12.0543 11.7827 12.0543 11.7785 12.0543 11.7745C12.0543 11.7703 12.0543 11.7663 12.0543 11.7623C12.0543 11.7582 12.0543 11.7542 12.0543 11.7502C12.0543 11.7462 12.0543 11.7422 12.0543 11.7382C12.0543 11.7342 12.0543 11.7302 12.0543 11.7263C12.0543 11.7223 12.0543 11.7183 12.0543 11.7145C12.0543 11.7105 12.0543 11.7067 12.0543 11.7027C12.0543 11.6989 12.0543 11.695 12.0543 11.6912C12.0543 11.6872 12.0543 11.6834 12.0543 11.6796C12.0543 11.6757 12.0543 11.6719 12.0543 11.6683C12.0543 11.6644 12.0543 11.6606 12.0543 11.6568C12.0543 11.6531 12.0543 11.6493 12.0543 11.6457C12.0543 11.6418 12.0543 11.6382 12.0543 11.6345C12.0543 11.6307 12.0543 11.627 12.0543 11.6234C12.0543 11.6197 12.0543 11.6161 12.0543 11.6124C12.0543 11.6088 12.0543 11.6051 12.0543 11.6017C12.0543 11.598 12.0543 11.5943 12.0543 11.5909C12.0543 11.5872 12.0543 11.5837 12.0543 11.5801C12.0543 11.5766 12.0543 11.573 12.0543 11.5695C12.0543 11.566 12.0543 11.5625 12.0543 11.559C12.0543 11.5556 12.0543 11.5521 12.0543 11.5486C12.0543 11.5451 12.0543 11.5417 12.0543 11.5383C12.0543 11.5349 12.0543 11.5314 12.0543 11.5281C12.0543 11.5246 12.0543 11.5213 12.0543 11.5178C12.0543 11.5145 12.0543 11.5112 12.0543 11.5079C12.0543 11.5044 12.0543 11.5011 12.0543 11.4978C12.0543 11.4945 12.0543 11.4912 12.0543 11.4879C12.0543 11.4846 12.0543 11.4815 12.0543 11.4782C12.0543 11.4749 12.0543 11.4717 12.0543 11.4684C12.0543 11.4653 12.0543 11.462 12.0543 11.4589C12.0543 11.4556 12.0543 11.4524 12.0543 11.4493C12.0543 11.4462 12.0543 11.443 12.0543 11.4399C12.0543 11.4368 12.0543 11.4337 12.0543 11.4305C12.0543 11.4274 12.0543 11.4243 12.0543 11.4211C12.0543 11.4182 12.0543 11.415 12.0543 11.4121C12.0543 11.409 12.0543 11.406 12.0543 11.4029C12.0543 11.3999 12.0543 11.397 12.0543 11.3938C12.0543 11.3909 12.0543 11.3879 12.0543 11.385C12.0543 11.382 12.0543 11.379 12.0543 11.3761C12.0543 11.3731 12.0543 11.3702 12.0543 11.3674C12.0543 11.3644 12.0543 11.3615 12.0543 11.3587C12.0543 11.3557 12.0543 11.3528 12.0543 11.35C12.0543 11.3472 12.0543 11.3443 12.0543 11.3415C12.0543 11.3387 12.0543 11.3357 12.0543 11.333C12.0543 11.3302 12.0543 11.3274 12.0543 11.3246C12.0543 11.3218 12.0543 11.319 12.0543 11.3164C12.0543 11.3137 12.0543 11.3109 12.0543 11.3081C12.0543 11.3055 12.0543 11.3027 12.0543 11.3001C12.0543 11.2973 12.0543 11.2947 12.0543 11.2919C12.0543 11.2893 12.0543 11.2867 12.0543 11.2841C12.0543 11.2813 12.0543 11.2787 12.0543 11.2761C12.0543 11.2735 12.0543 11.2709 12.0543 11.2683C12.0543 11.2657 12.0543 11.2632 12.0543 11.2606C12.0543 11.258 12.0543 11.2554 12.0543 11.253C12.0543 11.2503 12.0543 11.2479 12.0543 11.2453C12.0543 11.2429 12.0543 11.2403 12.0543 11.2378C12.0543 11.2354 12.0543 11.2328 12.0543 11.2303C12.0543 11.2279 12.0543 11.2255 12.0543 11.223C12.0543 11.2206 12.0543 11.2182 12.0543 11.2157C12.0543 11.2133 12.0543 11.2109 12.0543 11.2086C12.0543 11.2062 12.0543 11.2037 12.0543 11.2015C12.0543 11.199 12.0543 11.1968 12.0543 11.1943C12.0543 11.1921 12.0543 11.1897 12.0543 11.1874C12.0543 11.1851 12.0543 11.1827 12.0543 11.1804C12.0543 11.1782 12.0543 11.1759 12.0543 11.1737C12.0543 11.1714 12.0543 11.1691 12.0543 11.1669C12.0543 11.1646 12.0543 11.1623 12.0543 11.1603C12.0543 11.158 12.0543 11.1557 12.0543 11.1537C12.0543 11.1514 12.0543 11.1493 12.0543 11.147C12.0543 11.145 12.0543 11.1427 12.0543 11.1406C12.0543 11.1383 12.0543 11.1363 12.0543 11.1342C12.0543 11.1321 12.0543 11.13 12.0543 11.1279C12.0543 11.1258 12.0543 11.1237 12.0543 11.1217C12.0543 11.1196 12.0543 11.1175 12.0543 11.1154C12.0543 11.1133 12.0543 11.1112 12.0543 11.1093C12.0543 11.1072 12.0543 11.1051 12.0543 11.1032C12.0543 11.1011 12.0543 11.0992 12.0543 11.0973C12.0543 11.0952 12.0543 11.0933 12.0543 11.0912C12.0543 11.0893 12.0543 11.0874 12.0543 11.0855C12.0543 11.0836 12.0543 11.0817 12.0543 11.0797C12.0543 11.0778 12.0543 11.0759 12.0543 11.074C12.0543 11.0721 12.0543 11.0702 12.0543 11.0683C12.0543 11.0663 12.0543 11.0646 12.0543 11.0627C12.0543 11.0608 12.0543 11.059 12.0543 11.0571C12.0543 11.0554 12.0543 11.0535 12.0543 11.0517C12.0543 11.05 12.0543 11.0481 12.0543 11.0463C12.0543 11.0446 12.0543 11.0429 12.0543 11.041C12.0543 11.0392 12.0543 11.0375 12.0543 11.0357C12.0543 11.034 12.0543 11.0323 12.0543 11.0305C12.0543 11.0288 12.0543 11.0272 12.0543 11.0255C12.0543 11.0237 12.0543 11.022 12.0543 11.0204C12.0543 11.0187 12.0543 11.017 12.0543 11.0154C12.0543 11.0137 12.0543 11.0121 12.0543 11.0103C12.0543 11.0088 12.0543 11.0072 12.0543 11.0055C12.0543 11.0039 12.0543 11.0023 12.0543 11.0008C12.0543 10.999 12.0543 10.9975 12.0543 10.9959C12.0543 10.9943 12.0543 10.9928 12.0543 10.9912C12.0543 10.9897 12.0543 10.9881 12.0543 10.9867C12.0543 10.9851 12.0543 10.9836 12.0543 10.982C12.0543 10.9806 12.0543 10.979 12.0543 10.9775C12.0543 10.9761 12.0543 10.9745 12.0543 10.9731C12.0543 10.9716 12.0543 10.9702 12.0543 10.9686C12.0543 10.9672 12.0543 10.9658 12.0543 10.9643C12.0543 10.9629 12.0543 10.9615 12.0543 10.9601C12.0543 10.9587 12.0543 10.9571 12.0543 10.9557C12.0543 10.9543 12.0543 10.953 12.0543 10.9516C12.0543 10.9502 12.0543 10.949 12.0543 10.9476C12.0543 10.9462 12.0543 10.9448 12.0543 10.9434C12.0543 10.9422 12.0543 10.9408 12.0543 10.9394C12.0543 10.9382 12.0543 10.9368 12.0543 10.9356C12.0543 10.9342 12.0543 10.933 12.0543 10.9316C12.0543 10.9303 12.0543 10.9291 12.0543 10.9277C12.0543 10.9265 12.0543 10.9253 12.0543 10.9239C12.0543 10.9227 12.0543 10.9215 12.0543 10.9203C12.0543 10.919 12.0543 10.9178 12.0543 10.9166C12.0543 10.9154 12.0543 10.9142 12.0543 10.913C12.0543 10.9117 12.0543 10.9105 12.0543 10.9095C12.0543 10.9083 12.0543 10.907 12.0543 10.9058C12.0543 10.9048 12.0543 10.9036 12.0543 10.9023C12.0543 10.9013 12.0543 10.9001 12.0543 10.899C12.0543 10.8978 12.0543 10.8968 12.0543 10.8956C12.0543 10.8945 12.0543 10.8935 12.0543 10.8923C12.0543 10.8912 12.0543 10.8902 12.0543 10.8891C12.0543 10.8881 12.0543 10.8869 12.0543 10.8858C12.0543 10.8848 12.0543 10.8837 12.0543 10.8827C12.0543 10.8817 12.0543 10.8806 12.0543 10.8796C12.0543 10.8785 12.0543 10.8775 12.0543 10.8766C12.0543 10.8756 12.0543 10.8745 12.0543 10.8735C12.0543 10.8726 12.0543 10.8716 12.0543 10.8705C12.0543 10.8697 12.0543 10.8686 12.0543 10.8676C12.0543 10.8667 12.0543 10.8657 12.0543 10.8648C12.0543 10.8639 12.0543 10.8629 12.0543 10.862C12.0543 10.861 12.0543 10.8601 12.0543 10.8592C12.0543 10.8582 12.0543 10.8573 12.0543 10.8564C12.0543 10.8556 12.0543 10.8547 12.0543 10.8538C12.0543 10.853 12.0543 10.8519 12.0543 10.851C12.0543 10.8502 12.0543 10.8493 12.0543 10.8486C12.0543 10.8477 12.0543 10.8469 12.0543 10.846C12.0543 10.8451 12.0543 10.8443 12.0543 10.8436C12.0543 10.8427 12.0543 10.8418 12.0543 10.841C12.0543 10.8403 12.0543 10.8394 12.0543 10.8385C12.0543 10.8378 12.0543 10.837 12.0543 10.8363C12.0543 10.8354 12.0543 10.8347 12.0543 10.8338C12.0543 10.8331 12.0543 10.8324 12.0543 10.8316C12.0543 10.8309 12.0543 10.8302 12.0543 10.8293C12.0543 10.8286 12.0543 10.8279 12.0543 10.8272C12.0543 10.8265 12.0543 10.8257 12.0543 10.825C12.0543 10.8243 12.0543 10.8236 12.0543 10.8229C12.0543 10.8222 12.0543 10.8215 12.0543 10.8208C12.0543 10.8201 12.0543 10.8194 12.0543 10.8187C12.0543 10.818 12.0543 10.8175 12.0543 10.8168C12.0543 10.8161 12.0543 10.8154 12.0543 10.8149C12.0543 10.8142 12.0543 10.8135 12.0543 10.8128C12.0543 10.8123 12.0543 10.8116 12.0543 10.811C12.0543 10.8103 12.0543 10.8098 12.0543 10.8091C12.0543 10.8084 12.0543 10.8079 12.0543 10.8074C12.0543 10.8067 12.0543 10.8062 12.0543 10.8055C12.0543 10.805 12.0543 10.8044 12.0543 10.8037C12.0543 10.8043 12.0543 10.8032 12.0543 10.8037C12.0543 10.803 12.0543 10.801 12.0543 10.8004C12.0543 10.801 12.0543 10.7999 12.0543 10.8004C12.0543 10.7999 12.0543 10.7978 12.0543 10.7973C12.0543 10.7978 12.0543 10.7968 12.0543 10.7973C12.0543 10.7968 12.0543 10.7947 12.0543 10.7942C12.0543 10.7947 12.0543 10.7937 12.0543 10.7942C12.0543 10.7937 12.0543 10.7917 12.0543 10.7912C12.0543 10.7916 12.0543 10.7907 12.0543 10.7912C12.0543 10.7907 12.0543 10.7888 12.0543 10.7884C12.0543 10.789 12.0543 10.7879 12.0543 10.7884C12.0543 10.7879 12.0543 10.7862 12.0543 10.7857C12.0543 10.786 12.0543 10.7853 12.0543 10.7857C12.0543 10.7853 12.0543 10.7836 12.0543 10.7832C12.0543 10.7836 12.0543 10.7827 12.0543 10.7832C12.0543 10.7827 12.0543 10.7811 12.0543 10.7808C12.0543 10.7811 12.0543 10.7804 12.0543 10.7808C12.0543 10.7804 12.0543 10.7789 12.0543 10.7785C12.0543 10.7789 12.0543 10.778 12.0543 10.7785C12.0543 10.7782 12.0543 10.7766 12.0543 10.7763C12.0543 10.7766 12.0543 10.7759 12.0543 10.7763C12.0543 10.7759 12.0543 10.7745 12.0543 10.7742C12.0543 10.7745 12.0543 10.7738 12.0543 10.7742C12.0543 10.7738 12.0543 10.7726 12.0543 10.7723C12.0543 10.7726 12.0543 10.7719 12.0543 10.7723C12.0543 10.7721 12.0543 10.7707 12.0543 10.7703C12.0543 10.77 12.0543 10.7681 12.0543 10.7677C12.0543 10.7676 12.0543 10.7657 12.0543 10.7655C12.0543 10.7653 12.0543 10.7636 12.0543 10.7634C12.0543 10.7632 12.0543 10.7617 12.0543 10.7613C12.0543 10.7611 12.0543 10.7599 12.0543 10.7596C12.0543 10.7594 12.0543 10.7578 12.0543 10.7577C12.0543 10.7578 12.0543 10.7575 12.0543 10.7577C12.0543 10.7575 12.0543 10.7561 12.0543 10.7559C12.0543 10.7557 12.0543 10.754 12.0543 10.7538C12.0543 10.7538 12.0543 10.7523 12.0543 10.7521C12.0543 10.7519 12.0543 10.75 12.0543 10.75H10.75ZM12.0543 10.75V2.05435H9.44565V10.75H12.0543Z" fill="#011EA0"/>
</svg>
