<svg width="20" height="20" viewBox="0 0 20 20" fill="none" xmlns="http://www.w3.org/2000/svg">
<path fill-rule="evenodd" clip-rule="evenodd" d="M7.63579 2.34919C7.49996 2.61585 7.49996 2.96585 7.49996 3.66669V9.16669H6.50246C5.76663 9.16669 5.39829 9.16669 5.22413 9.31335C5.14939 9.37618 5.09041 9.45563 5.05192 9.54536C5.01342 9.63508 4.99649 9.73257 5.00246 9.83002C5.01663 10.0584 5.27079 10.3242 5.77829 10.8567L9.27663 14.5242C9.52829 14.7892 9.65413 14.9209 9.80163 14.97C9.93033 15.0132 10.0696 15.0132 10.1983 14.97C10.3458 14.9209 10.4716 14.7892 10.7233 14.5242L14.2216 10.8575C14.73 10.3242 14.9833 10.0575 14.9966 9.83002C15.0027 9.73264 14.9859 9.63519 14.9475 9.54547C14.9092 9.45575 14.8504 9.37626 14.7758 9.31335C14.6016 9.16669 14.2341 9.16669 13.4975 9.16669H12.5V3.66669C12.5 2.96669 12.5 2.61669 12.3633 2.34919C12.2436 2.1139 12.0526 1.92254 11.8175 1.80252C11.5508 1.66669 11.2008 1.66669 10.5 1.66669H9.49996C8.79996 1.66669 8.44996 1.66669 8.18246 1.80252C7.94705 1.9224 7.75567 2.11378 7.63579 2.34919ZM4.16663 17.5C4.16663 17.721 4.25442 17.933 4.4107 18.0893C4.56698 18.2456 4.77895 18.3334 4.99996 18.3334H15C15.221 18.3334 15.4329 18.2456 15.5892 18.0893C15.7455 17.933 15.8333 17.721 15.8333 17.5C15.8333 17.279 15.7455 17.067 15.5892 16.9108C15.4329 16.7545 15.221 16.6667 15 16.6667H4.99996C4.77895 16.6667 4.56698 16.7545 4.4107 16.9108C4.25442 17.067 4.16663 17.279 4.16663 17.5Z" fill="white"/>
</svg>
