<svg width="21" height="21" viewBox="0 0 21 21" fill="none" xmlns="http://www.w3.org/2000/svg">
<path d="M10.5 20.5C4.97059 20.5 0.5 16.0294 0.5 10.5C0.5 4.97059 4.97059 0.5 10.5 0.5C16.0294 0.5 20.5 4.97059 20.5 10.5C20.5 16.0294 16.0294 20.5 10.5 20.5ZM10.5 1.67647C5.67647 1.67647 1.67647 5.67647 1.67647 10.5C1.67647 15.3235 5.67647 19.3235 10.5 19.3235C15.3235 19.3235 19.3235 15.3235 19.3235 10.5C19.3235 5.67647 15.3235 1.67647 10.5 1.67647Z" fill="white"/>
<path d="M10.5 18.1471C6.26473 18.1471 2.85297 14.7353 2.85297 10.5C2.85297 8.9706 3.32355 7.44119 4.26473 6.02942C4.38238 5.91178 4.50003 5.79413 4.73532 5.79413C4.85297 5.79413 5.08826 5.79413 5.20591 5.91178L14.9706 15.6765C15.0883 15.7941 15.2059 15.9118 15.0883 16.1471C15.0883 16.2647 14.9706 16.5 14.853 16.6177C13.5588 17.6765 12.0294 18.1471 10.5 18.1471ZM4.85297 7.32354C4.26473 8.26472 4.02944 9.32354 4.02944 10.5C4.02944 14.0294 6.97061 16.9706 10.5 16.9706C11.5588 16.9706 12.7353 16.7353 13.6765 16.1471L4.85297 7.32354Z" fill="white"/>
<path d="M16.2647 15.2059C16.1471 15.2059 15.9118 15.0882 15.7941 15.0882L6.02942 5.32352C5.91177 5.20588 5.79412 5.08823 5.91177 4.85293C5.91177 4.73529 6.02941 4.49999 6.14706 4.38235C7.44118 3.44117 8.97059 2.97058 10.6177 2.97058C14.8529 2.97058 18.2647 6.38235 18.2647 10.6176C18.2647 12.1471 17.7941 13.6765 16.8529 15.0882C16.6176 15.0882 16.5 15.2059 16.2647 15.2059ZM7.32353 4.85293L16.1471 13.6765C16.7353 12.7353 16.9706 11.6765 16.9706 10.5C16.9706 6.97058 14.0294 4.0294 10.5 4.0294C9.44118 4.0294 8.26471 4.2647 7.32353 4.85293Z" fill="white"/>
</svg>
